<mxfile host="app.diagrams.net" modified="2023-01-17T17:26:46.890Z" agent="5.0 (Macintosh; Intel Mac OS X 10_15_7) AppleWebKit/537.36 (KHTML, like Gecko) Chrome/109.0.0.0 Safari/537.36 Edg/109.0.1518.52" version="20.8.5" etag="VmToaiK0A4xGoED172cI" type="github">
  <diagram id="fz54IqpGBmZTanIcJFjQ" name="Page-1">
    <mxGraphModel dx="1434" dy="803" grid="1" gridSize="10" guides="1" tooltips="1" connect="1" arrows="1" fold="1" page="1" pageScale="1" pageWidth="1100" pageHeight="850" math="0" shadow="0">
      <root>
        <mxCell id="0" />
        <mxCell id="1" parent="0" />
        <mxCell id="pKnwndLk_ZpKPhvuW-sv-3" value="" style="edgeStyle=orthogonalEdgeStyle;rounded=0;orthogonalLoop=1;jettySize=auto;html=1;" edge="1" parent="1" source="pKnwndLk_ZpKPhvuW-sv-1" target="pKnwndLk_ZpKPhvuW-sv-2">
          <mxGeometry relative="1" as="geometry" />
        </mxCell>
        <mxCell id="pKnwndLk_ZpKPhvuW-sv-1" value="Amend" style="verticalLabelPosition=bottom;html=1;verticalAlign=top;align=center;strokeColor=none;fillColor=#00BEF2;shape=mxgraph.azure.computer;pointerEvents=1;" vertex="1" parent="1">
          <mxGeometry x="70" y="290" width="50" height="45" as="geometry" />
        </mxCell>
        <mxCell id="pKnwndLk_ZpKPhvuW-sv-5" value="" style="edgeStyle=orthogonalEdgeStyle;rounded=0;orthogonalLoop=1;jettySize=auto;html=1;" edge="1" parent="1" source="pKnwndLk_ZpKPhvuW-sv-2" target="pKnwndLk_ZpKPhvuW-sv-4">
          <mxGeometry relative="1" as="geometry" />
        </mxCell>
        <mxCell id="pKnwndLk_ZpKPhvuW-sv-7" value="" style="edgeStyle=orthogonalEdgeStyle;rounded=0;orthogonalLoop=1;jettySize=auto;html=1;exitX=1;exitY=0;exitDx=0;exitDy=0;" edge="1" parent="1" source="pKnwndLk_ZpKPhvuW-sv-2" target="pKnwndLk_ZpKPhvuW-sv-6">
          <mxGeometry relative="1" as="geometry" />
        </mxCell>
        <mxCell id="pKnwndLk_ZpKPhvuW-sv-9" value="" style="edgeStyle=orthogonalEdgeStyle;rounded=0;orthogonalLoop=1;jettySize=auto;html=1;" edge="1" parent="1" source="pKnwndLk_ZpKPhvuW-sv-2" target="pKnwndLk_ZpKPhvuW-sv-8">
          <mxGeometry relative="1" as="geometry" />
        </mxCell>
        <mxCell id="pKnwndLk_ZpKPhvuW-sv-11" value="" style="edgeStyle=orthogonalEdgeStyle;rounded=0;orthogonalLoop=1;jettySize=auto;html=1;" edge="1" parent="1" source="pKnwndLk_ZpKPhvuW-sv-2" target="pKnwndLk_ZpKPhvuW-sv-10">
          <mxGeometry relative="1" as="geometry" />
        </mxCell>
        <mxCell id="pKnwndLk_ZpKPhvuW-sv-2" value="&lt;b&gt;whReport.route.js&lt;/b&gt; gets the dividendEventCode" style="rounded=1;whiteSpace=wrap;html=1;verticalAlign=top;fillColor=#00BEF2;strokeColor=none;" vertex="1" parent="1">
          <mxGeometry x="165" y="282.5" width="120" height="60" as="geometry" />
        </mxCell>
        <mxCell id="pKnwndLk_ZpKPhvuW-sv-4" value="&lt;b&gt;dividendEventUpdate.service.js&lt;/b&gt; Update status to &#39;APPLYING AMENDMENT&#39;" style="shape=document;whiteSpace=wrap;html=1;boundedLbl=1;verticalAlign=top;fillColor=#00BEF2;strokeColor=none;rounded=1;" vertex="1" parent="1">
          <mxGeometry x="137.5" y="110" width="202.5" height="90" as="geometry" />
        </mxCell>
        <mxCell id="pKnwndLk_ZpKPhvuW-sv-6" value="&lt;b&gt;whtReport.service.js&lt;/b&gt; listReportsByDividendEventCode()" style="rounded=1;whiteSpace=wrap;html=1;verticalAlign=top;fillColor=#00BEF2;strokeColor=none;" vertex="1" parent="1">
          <mxGeometry x="390" y="160" width="205" height="60" as="geometry" />
        </mxCell>
        <mxCell id="pKnwndLk_ZpKPhvuW-sv-8" value="&lt;b&gt;whtReport.service.js&lt;/b&gt; updateReport()" style="rounded=1;whiteSpace=wrap;html=1;verticalAlign=top;fillColor=#00BEF2;strokeColor=none;" vertex="1" parent="1">
          <mxGeometry x="365" y="282.5" width="145" height="60" as="geometry" />
        </mxCell>
        <mxCell id="pKnwndLk_ZpKPhvuW-sv-10" value="withholdingReport.manager.js amendReport()" style="rounded=1;whiteSpace=wrap;html=1;verticalAlign=top;fillColor=#00BEF2;strokeColor=none;" vertex="1" parent="1">
          <mxGeometry x="165" y="422.5" width="195" height="60" as="geometry" />
        </mxCell>
      </root>
    </mxGraphModel>
  </diagram>
</mxfile>
